<?xml version="1.0" encoding="utf-8"?>
<svg width="536" height="512" class="svg-inline--fa fa-star-half-alt fa-w-17" data-icon="star-half-alt" data-prefix="fas" xmlns="http://www.w3.org/2000/svg">
  <g transform="matrix(1, 0, 0, 1, 38.439445, 28.050406)">
    <g class="layer" transform="matrix(1, 0, 0, 1, 210.052032, -63.554966)">
      <title>Layer 1</title>
      <g transform="matrix(1, 0, 0, 1, -55.061905, -12.466846)">
        <path d="M 315.656 388.359 L 169.286 409.669 L 103.876 542.059 C 97.996 553.889 86.526 559.869 75.056 559.869 C 63.656 559.869 52.266 553.969 46.366 542.059 L -19.064 409.679 L -165.444 388.389 C -191.694 384.589 -202.214 352.299 -183.184 333.799 L -77.294 230.799 L -102.354 85.319 C -105.914 64.539 -89.324 47.869 -70.744 47.869 C -65.814 47.869 -60.744 49.039 -55.874 51.619 L 75.076 120.299 L 206.016 51.599 C 210.876 49.049 215.936 47.889 220.846 47.889 C 239.446 47.889 256.066 64.499 252.506 85.289 L 227.476 230.779 L 333.386 333.759 C 352.426 352.259 341.906 384.559 315.656 388.359 Z M 193.916 265.159 L 175.796 247.539 L 180.076 222.659 L 199.596 109.209 L 97.466 162.799 L 75.086 174.539 L 75.116 491.729 L 126.146 388.439 L 137.326 365.809 L 162.336 362.169 L 276.566 345.539 L 193.916 265.159 Z" fill="currentColor" id="path-1" transform="matrix(-1, 0, 0, -1, 150.209259, 607.737999)" style=""/>
        <path d="M 75.978 487.499 C 74.32 487.499 75.53 47.929 74.874 47.929 C 63.474 47.929 52.084 53.829 46.184 65.739 L -19.246 198.119 L -165.626 219.409 C -191.876 223.209 -202.396 255.499 -183.366 273.999 L -77.476 376.999 L -102.536 522.479 C -106.096 543.259 -89.506 559.929 -70.926 559.929 C -65.996 559.929 -60.926 558.759 -56.056 556.179 L 75.978 487.499 Z" id="svg_1" style="fill: rgb(255, 180, 0);"/>
      </g>
      <path style="fill: rgb(216, 216, 216); stroke: rgb(0, 0, 0);"/>
    </g>
  </g>
  <g class="layer" transform="matrix(1, 0, 0, 1, -605.737296, -66.508241)">
    <title>Layer 1</title>
  </g>
</svg>